<?xml version="1.0" encoding="UTF-8" standalone="no"?>
<!DOCTYPE svg PUBLIC "-//W3C//DTD SVG 1.1//EN"
 "http://www.w3.org/Graphics/SVG/1.1/DTD/svg11.dtd">
<!-- Generated by graphviz version 7.1.0 (0)
 -->
<!-- Title: dependencies Pages: 1 -->
<svg width="124pt" height="163pt"
 viewBox="0.00 0.00 124.00 163.00" xmlns="http://www.w3.org/2000/svg" xmlns:xlink="http://www.w3.org/1999/xlink">
<g id="graph0" class="graph" transform="scale(1 1) rotate(0) translate(4 159)">
<title>dependencies</title>
<polygon fill="white" stroke="none" points="-4,4 -4,-159 120,-159 120,4 -4,4"/>
<g id="clust1" class="cluster">
<title>cluster_</title>
<polygon fill="#eeeeee" stroke="#eeeeee" points="8,-56 8,-147 108,-147 108,-56 8,-56"/>
</g>
<g id="clust2" class="cluster">
<title>cluster____bin</title>
<polygon fill="#dddddd" stroke="#dddddd" points="16,-64 16,-139 100,-139 100,-64 16,-64"/>
<text text-anchor="middle" x="58" y="-123.8" font-family="Times,serif" font-size="14.00">bin</text>
</g>
<!-- ::bin::main -->
<g id="node1" class="node">
<title>::bin::main</title>
<ellipse fill="#f7d7a7" stroke="black" cx="58" cy="-90" rx="33.6" ry="18"/>
<text text-anchor="middle" x="58" y="-86.3" font-family="Times,serif" font-size="14.00">main</text>
</g>
<!-- ::std -->
<g id="node2" class="node">
<title>::std</title>
<ellipse fill="none" stroke="black" cx="58" cy="-18" rx="31.4" ry="18"/>
<text text-anchor="middle" x="58" y="-14.3" font-family="Times,serif" font-size="14.00">::std</text>
</g>
<!-- ::bin::main&#45;&gt;::std -->
<g id="edge1" class="edge">
<title>::bin::main&#45;&gt;::std</title>
<path fill="none" stroke="black" d="M58,-71.7C58,-64.41 58,-55.73 58,-47.54"/>
<polygon fill="black" stroke="black" points="61.5,-47.62 58,-37.62 54.5,-47.62 61.5,-47.62"/>
</g>
</g>
</svg>
